<svg width="156" height="36" fill="none" xmlns="http://www.w3.org/2000/svg"><path d="M72 17.07V13.9h12.506v3.17h-4.328v11.322h-3.85V17.07H72zM89.91 22.278v6.114h-3.878V13.899h3.738v5.69h.112c.244-.694.649-1.234 1.216-1.62.567-.392 1.248-.588 2.044-.588.764 0 1.427.174 1.989.523.566.35 1.004.83 1.313 1.444.314.613.469 1.316.464 2.109v6.935H93.03v-6.114c.004-.538-.129-.96-.4-1.267-.268-.307-.65-.46-1.146-.46-.473 0-.852.153-1.138.46-.286.307-.43.729-.436 1.267zM103.994 28.59c-1.729 0-3.089-.493-4.082-1.48-.989-.99-1.483-2.365-1.483-4.125 0-1.122.225-2.104.675-2.943a4.838 4.838 0 011.904-1.96c.819-.468 1.786-.701 2.901-.701 1.087 0 2.031.224 2.832.672a4.612 4.612 0 011.868 1.925c.445.83.668 1.823.668 2.98v.905h-7.026v.17c0 .523.159.957.478 1.302.323.34.773.51 1.349.51.398 0 .745-.083 1.04-.248.299-.17.506-.409.618-.715h3.541c-.183 1.132-.735 2.033-1.658 2.703-.918.67-2.127 1.005-3.625 1.005zm-1.743-6.878h3.457c-.01-.467-.178-.847-.506-1.14-.323-.297-.726-.445-1.208-.445-.474 0-.881.146-1.223.438-.337.293-.51.675-.52 1.147zM123.288 13.9h3.878v9.567c0 1.104-.257 2.035-.773 2.795-.51.755-1.231 1.328-2.163 1.72-.928.386-2.019.58-3.274.58-1.265 0-2.364-.194-3.296-.58-.927-.392-1.646-.965-2.156-1.72-.506-.76-.759-1.692-.759-2.795v-9.568h3.906v9.398c0 .537.204.974.611 1.309.412.335.977.502 1.694.502.73 0 1.302-.167 1.714-.502.412-.335.618-.772.618-1.31V13.9zM136.779 18.428c-.037-.472-.213-.84-.527-1.104-.309-.264-.78-.396-1.412-.396-.604 0-1.044.104-1.321.311-.276.208-.417.472-.421.793-.019.344.129.625.442.842.319.217.818.399 1.497.545l1.18.255c1.588.344 2.733.896 3.436 1.655.702.755 1.056 1.685 1.061 2.789-.005 1.429-.525 2.528-1.56 3.297-1.035.764-2.464 1.146-4.286 1.146-1.25 0-2.342-.186-3.274-.558-.927-.373-1.648-.946-2.164-1.72-.51-.778-.768-1.774-.772-2.986h3.709c.033.665.26 1.172.682 1.521.426.345 1.014.517 1.763.517.628 0 1.101-.114 1.419-.34.323-.226.487-.519.492-.877-.005-.33-.166-.604-.485-.821-.318-.222-.878-.42-1.679-.595l-1.433-.311c-1.274-.278-2.279-.743-3.014-1.394-.731-.656-1.094-1.55-1.089-2.682-.005-.92.239-1.724.731-2.413.496-.693 1.182-1.234 2.058-1.62.881-.387 1.89-.58 3.028-.58 1.162 0 2.166.195 3.014.587.848.391 1.501.943 1.96 1.655.464.708.698 1.536.703 2.484h-3.738zM145.377 28.392h-4.215l4.749-14.493h5.34L156 28.392h-4.215l-.829-2.774h-4.75l-.829 2.774zm1.714-5.718h2.979l-1.433-4.784h-.112l-1.434 4.784zM59.821 4.478v.358l-1.08.953-.533-.018-.405.215.11.431v.305l-.94.45-.165.629v1.185l.738.861-.092.36-.775.305v.484l-.557.293-.367.192h-.608l-.959.952.148.144.167 1.077-.628 1.403-.238-.037-.055-.396-.596-.032.41.697.48.556-.203.828-.333.529h-.325l.05-.602-.282-.432-.412-.211-.043-.543.13-.682-.201-.127-.462.468.166.341.038.755.295.144.313.575.067.313.042.19-.13.413.48.036.37.159-.093.451.313.198-.018.178-.314.288.553.413v.54l-.425.25.258.449-.184.45-1.457.232v.557l-.423.79-.683.146-.105.173-.393.652.02.36-.884.915h-.373l-.295.628-.48.252-.008.15-.12 1.862.35.45.15.627.019.018.368.306v.486l.884.737.092.827.331.603.647 1.176v1.781H49.8v-.02c-.053-.132-.388-.416-.388-.416l-.514.038v-.61h-.352l-.147-.233v-.341l-.295-.02-.59-.664.075-.378-.295.037-.149-.27.02-.078.13-.55-.095-.933-.313-.108-.939-1.006-.794-.055-.94.538-.369.09-.57-.824-1.524-.11-.228-.017-.023.017-.475.342-.258-.287-.326.282-1.37.005v.575l-.257.341.7.701-.387.233-.94-.431-.5.576-.847-.003-.238-.808-.978-.27v.415l-.201.126-1.347-.341h-.571l-1.826.79v.36l-.736.483-.813.163-.295.431-.405.036-.22.503-.277.072.018 1.043c-.05.172-.044.377-.013.576.07.449.271.877.271.877l-.24.179-.994-.288a2.015 2.015 0 01-1.273-.768c-.256-.337-.332-.649-.332-.649-.073-.486-.183-.665-.183-.665-.609-.34-1.07-1.598-1.07-1.598a.31.31 0 00-.02-.043c-.441-1.03-1.069-1.537-1.069-1.537h-.608l-.183-.198-1.033-.036v.701l-.645.484c-.959-.232-1.637-1.393-1.637-1.393l.033-.636-2.101-2.478-1.956-.144-.164.738-3.486-.414-4-2.354v-.628h-2.81l-.09-.976-.039-.424-.48-.179v-.539h-.442l-.068-.388-.373-.097-.702-.843-.921-.108-.313-.25.042-.126.002-.001.139-.396-.11-.197-.094-.233.13-.324-.59-1.419-.166-.145v-.215l.258-.268v-.27l-.425-.485.037-1.06-.387-.414.037-.575-.432-.636.044-.851.13-.543L0 11.446l.352-.468.644-1.024-.073-.502.183-.324.074-1.292 1.18-2.085v-.467l.198-.281.17-.24.37-1.15v-.322l.333-.377-.203-.36.024-.586.307-.291-.294-.04.018-.43-.183-.09V.83l.183-.483h.258l.167.43.608.235.645.107v.433l-.275.377-.37.125.075.575h.533l.37-.431v-.505l.147-.179-.295-.377.213-.36L5.44.58 5.274.418 5.44 0l2.285.686 2.823.737.966.208.122.025 4.812.755.105.014 1.175.137 5.97.704 5.194.223 2.434-.16V2.86l.499.287v.592l1.033.36.295-.324.773.251.222.36L35 5l1 .5L34.5 7l.899-.278v.597L36.5 7l.69-.581L37.5 6h.5l-.5.722h.5l.5.278h1l1-.278.343.38h.367l.29.398L39 8l-.5 1v4.5l1-.5v-1.822l.13-1.418 1.213-1.57h.823l.447.437L42.5 9l-.387 1.352.887-.179.5.827-.5 1v1h1.5l.361-.193v-.533l.977-1.096.903.054.794-.61.552.018.147-.288-.128-.251-.59.072-.093-.413.59-.556.995-.52.776.035-.112-.342 1.235-.502.277-.556.775-.665 2.95-.667.183-.482.455-.125.004-.001.111-.215.019-.341.259-.09-.02-.378-.22-.45.304-1.482h2.032l.485 1.482.443.019.052.462.805.091z" fill="#fff"/></svg>